# xmcd
#
# Track frame offsets: 
#        300
#        20042
#        52286
#        80784
#        99680
#        121710
#        138202
#        160671
#        199418
#        222394
#        243834
#        263755
#
# Disc length: 3695 seconds
#
# Revision: 0
# Processed by: cddbd v1.4PL0 Copyright (c) Steve Scherf et al.
# Submitted via: ExactAudioCopy v0.95a2
#
DISCID=af0e6b0c
DTITLE=Eric Clapton and B.B. King - Riding With The King
DYEAR=1900
DGENRE=Blues
TTITLE0=Riding With The King
TTITLE1=Ten Long Years
TTITLE2=Key To The Highway
TTITLE3=Marry You
TTITLE4=Three O'clock Blues
TTITLE5=Help The Poor
TTITLE6=I Wanna Be
TTITLE7=Worried Life Blues
TTITLE8=Days Of Old
TTITLE9=When My Hart Beats Like A Hammer
TTITLE10=Hold On I'm Comming
TTITLE11=Come Rain Or Come Shine
EXTD=
EXTT0=
EXTT1=
EXTT2=
EXTT3=
EXTT4=
EXTT5=
EXTT6=
EXTT7=
EXTT8=
EXTT9=
EXTT10=
EXTT11=
PLAYORDER=
